<svg width="25" height="24" viewBox="0 0 25 24" fill="none" xmlns="http://www.w3.org/2000/svg">
<path d="M12.3847 8.00571C10.1734 8.00571 8.39061 9.80571 8.39061 12C8.39061 14.1943 10.1905 15.9943 12.3847 15.9943C14.5789 15.9943 16.3788 14.1943 16.3788 12C16.3788 9.80571 14.5789 8.00571 12.3847 8.00571ZM24.3842 12C24.3842 10.3371 24.3842 8.70857 24.2985 7.04571C24.2128 5.12571 23.7671 3.41143 22.3614 2.02286C20.9558 0.617143 19.2587 0.171428 17.3388 0.0857142C15.676 -8.36013e-08 14.0475 0 12.3847 0C10.7219 0 9.09344 -8.36013e-08 7.43065 0.0857142C5.51074 0.171428 3.79653 0.617143 2.40802 2.02286C1.00237 3.42857 0.556675 5.12571 0.470964 7.04571C0.385254 8.70857 0.385254 10.3371 0.385254 12C0.385254 13.6629 0.385254 15.2914 0.470964 16.9543C0.556675 18.8743 1.00237 20.5886 2.40802 21.9771C3.81367 23.3829 5.51074 23.8286 7.43065 23.9143C9.09344 24 10.7219 24 12.3847 24C14.0475 24 15.676 24 17.3388 23.9143C19.2587 23.8286 20.9729 23.3829 22.3614 21.9771C23.7671 20.5714 24.2128 18.8743 24.2985 16.9543C24.4013 15.3086 24.3842 13.6629 24.3842 12ZM12.3847 18.1543C8.97344 18.1543 6.23071 15.4114 6.23071 12C6.23071 8.58857 8.97344 5.84571 12.3847 5.84571C15.796 5.84571 18.5387 8.58857 18.5387 12C18.5387 15.4114 15.796 18.1543 12.3847 18.1543ZM18.7959 7.02857C18.0073 7.02857 17.3559 6.39429 17.3559 5.58857C17.3559 4.78286 17.9902 4.14857 18.7959 4.14857C19.6015 4.14857 20.2358 4.78286 20.2358 5.58857C20.2401 5.77635 20.2059 5.96301 20.1351 6.137C20.0643 6.31098 19.9586 6.46857 19.8244 6.6C19.693 6.73418 19.5354 6.83994 19.3614 6.91071C19.1874 6.98149 19.0008 7.01577 18.813 7.01143L18.7959 7.02857Z" fill="#333333"/>
</svg>
