<svg width="11" height="12" viewBox="0 0 11 12" fill="none" xmlns="http://www.w3.org/2000/svg">
<path d="M7.3338 8.31763L8.28101 7.37004C8.40859 7.24399 8.57 7.15771 8.74564 7.12167C8.92129 7.08562 9.10362 7.10136 9.2705 7.16698L10.4249 7.62809C10.5935 7.69657 10.7382 7.81345 10.8405 7.96402C10.9428 8.11458 10.9983 8.29208 11 8.47415V10.5893C10.999 10.7132 10.973 10.8355 10.9235 10.9491C10.874 11.0626 10.802 11.1649 10.712 11.2499C10.6219 11.3349 10.5155 11.4007 10.3994 11.4435C10.2832 11.4863 10.1595 11.5051 10.0359 11.4988C1.94656 10.9954 0.314319 4.14231 0.00563143 1.51952C-0.00869808 1.39072 0.00439441 1.26035 0.0440475 1.13698C0.0837006 1.01361 0.149016 0.900032 0.235696 0.803726C0.322376 0.707421 0.428457 0.630567 0.546959 0.57822C0.665462 0.525874 0.7937 0.499222 0.923238 0.500017H2.96565C3.14791 0.500557 3.32584 0.555632 3.47655 0.658159C3.62727 0.760685 3.74387 0.905975 3.81137 1.07534L4.27229 2.23021C4.34006 2.39649 4.35735 2.57906 4.322 2.75511C4.28665 2.93117 4.20024 3.0929 4.07355 3.22011L3.12634 4.16769C3.12634 4.16769 3.67183 7.86075 7.3338 8.31763Z" fill="#414E4F"/>
</svg>
