<svg width="52" height="58" viewBox="0 0 52 58" fill="none" xmlns="http://www.w3.org/2000/svg">
<path d="M41.9561 24.3483C41.9561 15.7479 34.782 8.76001 25.9808 8.76001C17.1796 8.76001 10.0054 15.7479 10.0054 24.3483C10.0054 32.9362 17.1668 39.9366 25.9808 39.9366C34.7948 39.9366 41.9561 32.9362 41.9561 24.3483ZM25.9808 37.924C18.307 37.924 12.0552 31.8362 12.0552 24.3358C12.0552 16.8354 18.307 10.7601 25.9808 10.7601C33.6546 10.7601 39.9064 16.8479 39.9064 24.3483C39.9064 31.8487 33.6546 37.924 25.9808 37.924Z" fill="#D7D7D7"/>
<path d="M45.556 40.4741C46.1325 40.1866 46.645 39.8116 47.0421 39.2866C48.0798 37.899 47.8364 36.0864 47.6058 34.3238C47.4521 33.1862 47.2983 31.9987 47.5674 31.1986C47.8108 30.4486 48.6307 29.6111 49.4122 28.811C50.6292 27.561 52 26.1484 52 24.3608C52 22.5732 50.642 21.1356 49.425 19.8856C48.6435 19.073 47.8236 18.248 47.5802 17.498C47.3112 16.6979 47.4649 15.5104 47.6186 14.3728C47.8492 12.6102 48.0798 10.7976 47.0549 9.41004C46.0172 8.00997 44.1596 7.67246 42.3661 7.33494C41.2131 7.12243 40.0217 6.90992 39.3427 6.42239C38.6637 5.94737 38.1 4.92232 37.5491 3.92227C36.7164 2.42219 35.7556 0.722104 34.0517 0.172076C32.4119 -0.35295 30.7337 0.422089 29.1067 1.17213C28.0177 1.67215 26.9032 2.18468 26.0064 2.18468C25.1096 2.18468 23.9951 1.67215 22.9061 1.17213C21.2791 0.422089 19.6009 -0.35295 17.9611 0.172076C16.2444 0.709604 15.3476 2.34719 14.4637 3.92227C13.9128 4.90982 13.3363 5.94737 12.6701 6.42239C11.9783 6.90992 10.7997 7.13493 9.64671 7.33494C7.85317 7.65995 5.99557 8.00997 4.95787 9.41004C3.92018 10.7976 4.16359 12.6102 4.39419 14.3728C4.54792 15.5104 4.70165 16.6979 4.43262 17.498C4.18921 18.248 3.3693 19.0855 2.58783 19.8856C1.37078 21.1356 0 22.5482 0 24.3358C0 26.1234 1.38359 27.536 2.58783 28.786C3.3693 29.5986 4.18921 30.4236 4.43262 31.1736C4.70165 31.9737 4.54792 33.1612 4.39419 34.2988C4.16359 36.0614 3.93299 37.874 4.95787 39.2616C5.35501 39.7866 5.86746 40.1741 6.44395 40.4491L0.85834 49.8871C0.653363 50.2371 0.678985 50.6746 0.935206 50.9996C1.19143 51.3247 1.61419 51.4622 2.01133 51.3622L10.2616 49.1996L12.478 57.25C12.5804 57.6375 12.9263 57.925 13.3363 57.9875C13.3875 57.9875 13.426 58 13.4644 58C13.8231 58 14.169 57.8125 14.3484 57.5L19.5881 48.637C20.7026 48.512 21.83 47.9995 22.9189 47.4995C24.0079 46.9994 25.1224 46.4869 26.0192 46.4869C26.916 46.4869 28.0306 46.9994 29.1195 47.4995C30.2084 47.9995 31.3358 48.5245 32.4504 48.637L37.6901 57.5C37.8694 57.8125 38.2153 58 38.574 58C38.6125 58 38.6637 58 38.7021 57.9875C39.1121 57.9375 39.4452 57.65 39.5605 57.25L41.7768 49.1996L50.0271 51.3622C50.4242 51.4622 50.847 51.3247 51.1032 50.9996C51.3594 50.6746 51.3851 50.2371 51.1801 49.8871L45.556 40.4741ZM13.7719 54.4248L11.9399 47.737C11.799 47.1995 11.2353 46.8869 10.6844 47.0244L3.8305 48.812L8.39123 41.0991C8.78837 41.1866 9.19833 41.2617 9.60828 41.3367C10.7613 41.5492 11.9527 41.7617 12.6317 42.2492C13.3107 42.7242 13.8744 43.7493 14.4252 44.7493C15.1683 46.0869 16.001 47.5745 17.3846 48.2745L13.7719 54.4248ZM25.9808 44.4993C24.6228 44.4993 23.2905 45.1118 22.0094 45.6994C20.7411 46.2869 19.4343 46.8869 18.576 46.6119C17.6408 46.3119 16.9362 45.0368 16.2444 43.8118C15.5782 42.6242 14.8992 41.3992 13.8487 40.6491C12.7854 39.8991 11.3634 39.6366 9.99261 39.3866C8.59621 39.124 7.14856 38.8615 6.57206 38.1115C6.02119 37.374 6.20054 35.9489 6.3799 34.5863C6.55925 33.2237 6.73861 31.8237 6.32865 30.5861C5.93151 29.4111 4.95787 28.3985 4.02267 27.436C3.0234 26.4109 1.98571 25.3483 1.98571 24.3608C1.98571 23.3732 3.0234 22.3107 4.02267 21.2856C4.97068 20.3106 5.94432 19.3105 6.32865 18.1355C6.73861 16.8979 6.55925 15.4979 6.3799 14.1353C6.20054 12.7602 6.02119 11.3476 6.57206 10.6101C7.13575 9.84757 8.5834 9.58505 9.99261 9.33504C11.3634 9.08503 12.7854 8.82251 13.8487 8.07248C14.8992 7.33494 15.5782 6.09738 16.2444 4.90982C16.9362 3.67225 17.6408 2.40969 18.576 2.10967C19.4472 1.83466 20.7539 2.43469 22.0094 3.02222C23.2905 3.60975 24.6228 4.22228 25.9808 4.22228C27.3388 4.22228 28.6711 3.60975 29.9522 3.02222C31.2205 2.43469 32.5272 1.83466 33.3856 2.10967C34.3208 2.40969 35.0254 3.68475 35.7172 4.90982C36.3833 6.09738 37.0623 7.32244 38.1128 8.07248C39.1762 8.82251 40.5982 9.08503 41.969 9.33504C43.3654 9.59755 44.813 9.86007 45.3895 10.6101C45.9404 11.3476 45.761 12.7727 45.5817 14.1353C45.4023 15.4979 45.223 16.8979 45.6329 18.1355C46.0301 19.3105 47.0037 20.3231 47.9389 21.2856C48.9382 22.3107 49.9759 23.3732 49.9759 24.3608C49.9759 25.3483 48.9382 26.4109 47.9389 27.436C46.9909 28.411 46.0172 29.4111 45.6329 30.5861C45.223 31.8237 45.4023 33.2237 45.5817 34.5863C45.761 35.9614 45.9404 37.374 45.3895 38.1115C44.8258 38.874 43.3782 39.1365 41.969 39.3866C40.5982 39.6366 39.1762 39.8991 38.1128 40.6491C37.0623 41.3867 36.3833 42.6242 35.7172 43.8118C35.0254 45.0493 34.3208 46.3119 33.3856 46.6119C32.5144 46.8869 31.2077 46.2869 29.9522 45.6994C28.6711 45.1118 27.3388 44.4993 25.9808 44.4993ZM41.2772 47.0244C40.7263 46.8869 40.1626 47.1995 40.0217 47.737L38.1897 54.4248L34.5642 48.2995C35.935 47.612 36.7421 46.1744 37.5235 44.7743C38.0744 43.7868 38.6509 42.7492 39.3171 42.2742C40.0089 41.7867 41.1875 41.5617 42.3405 41.3617C42.7504 41.2867 43.1604 41.2117 43.5575 41.1241L48.1183 48.837L41.2772 47.0244Z" fill="#D7D7D7"/>
<path d="M35.5891 18.223C35.1919 17.8355 34.5386 17.8355 34.1414 18.223L23.7645 28.3485L17.833 22.5607C17.4358 22.1732 16.7825 22.1732 16.3853 22.5607C15.9882 22.9482 15.9882 23.5858 16.3853 23.9733L23.0471 30.4736C23.2392 30.6611 23.4954 30.7611 23.7773 30.7611C24.0591 30.7611 24.3153 30.6611 24.5075 30.4736L35.5891 19.6356C35.9862 19.248 35.9862 18.6105 35.5891 18.223Z" fill="#D7D7D7"/>
</svg>
