<svg width="61" height="61" viewBox="0 0 61 61" fill="none" xmlns="http://www.w3.org/2000/svg">
<path d="M60.6598 36.3371L51.959 21.1335C51.2054 19.8439 49.5611 19.4366 48.2594 20.1154L47.7113 20.3869V9.11991C47.7113 8.84842 47.5743 8.57692 47.4373 8.3733L39.7641 0.771493C39.5586 0.567873 39.3531 0.5 39.0105 0.5H14.2782C13.7301 0.5 13.2506 0.975113 13.2506 1.5181V20.3869L12.7025 20.1154C11.4008 19.4366 9.75654 19.8439 9.00292 21.1335L0.37061 36.3371C0.0280578 36.948 -0.108963 37.6946 0.0965682 38.3733C0.3021 39.052 0.781673 39.6629 1.39827 40.0023L6.194 42.6493C6.60506 42.8529 7.08463 42.9887 7.4957 42.9887C8.45484 42.9887 9.34548 42.5136 9.89356 41.6312L10.0991 41.2919L12.634 43.2602C12.5655 43.5317 12.4284 43.8032 12.4284 44.0747C12.2914 45.0249 12.5655 45.9751 13.1821 46.7896C13.8672 47.6041 14.7578 48.0792 15.7169 48.1471V48.2149C15.5799 49.1652 15.854 50.1154 16.4706 50.9299C17.1557 51.7443 18.0463 52.2195 19.0054 52.2873V52.3552C18.8684 53.3054 19.1425 54.2557 19.7591 55.0701C20.4442 55.8846 21.3348 56.3597 22.294 56.4276V56.4955C22.1569 57.4457 22.431 58.3959 23.0476 59.1425C23.8012 60.0249 24.8288 60.5 25.925 60.5C26.7471 60.5 27.5693 60.2285 28.2544 59.6855L29.8301 58.4638C30.0356 58.3281 30.2412 58.1244 30.3782 57.9208L31.8854 58.9389C32.5705 59.4819 33.3926 59.7534 34.2148 59.7534C35.3109 59.7534 36.3386 59.2783 37.0922 58.3959C37.5033 57.8529 37.7773 57.1742 37.8458 56.5633C38.1199 56.6312 38.4624 56.6991 38.805 56.6991H39.216C40.1752 56.5633 41.0658 56.0882 41.6824 55.3416C42.299 54.595 42.573 53.6448 42.436 52.6267V52.5588C43.3952 52.4909 44.3543 52.0158 44.9709 51.2014C45.5875 50.4547 45.8615 49.5045 45.7245 48.4864V48.4185C46.6837 48.3507 47.6428 47.8756 48.2594 47.0611C48.876 46.3145 49.15 45.3643 49.013 44.3461C48.9445 43.8032 48.739 43.3281 48.5335 42.8529L50.9313 41.1561L51.1368 41.5633C51.6164 42.4457 52.5756 42.9208 53.5347 42.9208C54.0143 42.9208 54.4253 42.7851 54.8364 42.5814L59.6321 39.9344C60.2487 39.595 60.7283 39.052 60.9338 38.3054C61.0709 37.6946 61.0023 36.948 60.6598 36.3371ZM40.0382 3.96154L44.2173 8.10181H40.0382V3.96154ZM37.9828 2.46833V9.05204C37.9828 9.59502 38.4624 10.0701 39.0105 10.0701H45.7245V21.405L43.5322 22.6267C42.8471 23.0339 42.436 23.6448 42.2305 24.3235C42.025 25.0023 42.0935 25.7489 42.436 26.3597L40.4492 26.9706C39.1475 27.31 38.0514 26.9027 36.9552 26.3597L35.3109 25.5452C33.0501 24.4593 30.3782 25.4095 28.5969 26.6312L26.9527 27.7172C25.0344 26.6312 22.431 26.0204 18.6629 25.8846C18.8684 25.3416 18.8684 24.7986 18.7314 24.2557C18.5259 23.5769 18.0463 22.9661 17.4297 22.6267L15.2374 21.405V2.46833H37.9828ZM7.22165 40.8167L2.42592 38.1697C2.22039 38.0339 2.15188 37.8982 2.15188 37.8303C2.08337 37.6946 2.15188 37.4909 2.22039 37.3552L10.9212 22.1516C11.0582 21.948 11.2638 21.8122 11.4693 21.8122C11.6063 21.8122 11.6748 21.8122 11.8119 21.8801L16.6076 24.5271C16.8131 24.6629 16.8816 24.7986 16.8816 24.9344C16.9501 25.0701 16.8816 25.2738 16.8131 25.4095L8.11229 40.5452C7.90676 40.8846 7.4957 40.9525 7.22165 40.8167ZM14.7578 45.4321C14.4838 45.0928 14.3467 44.6855 14.4152 44.2783C14.4838 43.871 14.6893 43.4638 15.0318 43.1923L18.4574 40.4774C19.1425 39.9344 20.1701 40.0023 20.7867 40.7489C21.0608 41.0882 21.1978 41.4955 21.1293 41.9027C21.0608 42.31 20.8552 42.7172 20.5127 42.9887L17.0872 45.7036C16.3335 46.2466 15.3059 46.1109 14.7578 45.4321ZM18.1148 49.5724C17.8408 49.233 17.7038 48.8258 17.7723 48.4185C17.8408 48.0113 18.0463 47.6041 18.3889 47.3326L23.6642 43.1244C24.3493 42.5814 25.3769 42.6493 25.925 43.3959C26.4731 44.0747 26.4046 45.0928 25.651 45.6357L23.8012 47.129L20.3757 49.8439C19.6906 50.3869 18.6629 50.2511 18.1148 49.5724ZM21.4033 53.6448C21.1293 53.3054 20.9923 52.8982 21.0608 52.4909C21.1293 52.0837 21.3348 51.6765 21.6774 51.405L25.1029 48.69C25.788 48.1471 26.8156 48.2828 27.3637 48.9615C27.6378 49.3009 27.7748 49.7081 27.7063 50.1154C27.6378 50.5226 27.4322 50.9299 27.0897 51.2014L25.2399 52.6267L23.6642 53.8484C22.9791 54.4593 21.9514 54.3235 21.4033 53.6448ZM28.5969 56.767L27.0212 57.9887C26.3361 58.5317 25.3084 58.4638 24.6918 57.7172C24.4178 57.3778 24.2808 56.9706 24.3493 56.5633C24.4178 56.1561 24.6233 55.7489 24.9659 55.4774L26.5416 54.2556C27.2267 53.7127 28.2544 53.8484 28.8024 54.5271C29.0765 54.8665 29.2135 55.2738 29.145 55.681C29.145 56.1561 28.9395 56.4955 28.5969 56.767ZM46.6837 45.7715C46.1356 46.4502 45.1079 46.586 44.3543 46.043L38.5309 41.4276C38.1199 41.0882 37.4348 41.1561 37.0922 41.5633C36.7497 41.9706 36.8182 42.6493 37.2292 42.9887L43.0526 47.6041C43.3952 47.8756 43.6007 48.2828 43.6692 48.69C43.7377 49.0973 43.6007 49.5724 43.3267 49.8439C42.7786 50.5226 41.7509 50.6584 41.0658 50.1154L40.9973 50.0475L38.1884 47.8077L36.6126 46.586C36.2016 46.2466 35.5165 46.3145 35.1739 46.7217C34.8314 47.129 34.8999 47.8077 35.3109 48.1471L39.8326 51.6765C40.1752 51.948 40.3807 52.3552 40.4492 52.7624C40.5177 53.1697 40.3807 53.6448 40.1067 53.9163C39.8326 54.2556 39.4216 54.4593 39.0105 54.5271C38.5994 54.595 38.1199 54.4593 37.7773 54.1878L36.4071 53.1018L34.2148 51.4728C33.8037 51.1335 33.1186 51.2014 32.776 51.6086C32.4335 52.0158 32.502 52.6946 32.9131 53.0339L33.5297 53.509L35.1739 54.7986C35.5165 55.0701 35.722 55.4774 35.7905 55.8846C35.859 56.2919 35.722 56.767 35.448 57.0385C34.8999 57.7172 33.8722 57.8529 33.1186 57.3099L31.2003 55.8167C31.2688 54.8665 30.9948 53.9163 30.4467 53.2376C30.0356 52.7624 29.5561 52.4231 29.008 52.1516C29.419 51.6086 29.6931 50.9977 29.7616 50.319C29.8986 49.3688 29.6246 48.4185 29.008 47.6041C28.5969 47.129 28.1173 46.7896 27.5693 46.5181C28.5969 45.2285 28.5969 43.3281 27.5693 41.9706C26.4731 40.6131 24.6233 40.2738 23.1161 40.9525C22.9791 40.3416 22.7735 39.7986 22.3625 39.3235C21.0608 37.7624 18.7999 37.4909 17.1557 38.7805L13.7987 41.4276L11.1267 39.3235L17.7038 27.8529C21.0608 27.9208 23.4586 28.2602 25.1714 29.0068L24.7603 29.2783C24.2122 29.6855 23.7327 29.957 23.2531 30.2285C21.8144 31.1787 20.4442 32.0611 21.3348 33.69C22.0884 35.0475 23.2531 35.9977 24.6918 36.3371C26.4046 36.7443 28.2544 36.405 30.0356 35.319L32.0909 34.0294C33.5982 33.0792 33.8037 33.0113 35.3109 34.233L43.2581 40.681L46.5466 43.2602C46.8892 43.5317 47.0947 43.9389 47.1632 44.3461C47.0947 45.0249 46.9577 45.4321 46.6837 45.7715ZM47.0947 41.4276L44.4228 39.3235L36.4756 32.8756C34.3518 31.1109 33.2556 31.043 30.9263 32.4683L28.871 33.7579C27.6378 34.5724 26.3361 34.8439 25.1714 34.5045C24.2808 34.3009 23.5956 33.69 23.1161 32.8756C23.3216 32.6719 23.8697 32.3326 24.3493 31.9932C24.7603 31.7217 25.3084 31.3823 25.8565 30.9751L29.7616 28.2602C30.9948 27.3778 32.9816 26.6312 34.3518 27.31L35.996 28.0566C37.3662 28.7353 39.0105 29.3461 40.9288 28.8032L43.3952 28.1244L49.8351 39.3914L47.0947 41.4276ZM58.947 37.8303C58.947 37.8982 58.8785 38.1018 58.673 38.1697L53.8773 40.8167C53.5347 41.0204 53.1236 40.8846 52.9866 40.5452L44.2173 25.3416C44.1488 25.2059 44.0803 25.0023 44.1488 24.8665C44.1488 24.7986 44.2173 24.595 44.4228 24.4593L49.2186 21.8122C49.5611 21.6086 49.9037 21.7443 50.1092 22.0837L58.81 37.2873C58.947 37.4909 58.947 37.6267 58.947 37.8303Z" fill="#D7D7D7"/>
<path d="M12.1544 25.681C11.6063 25.681 11.1267 26.1561 11.1267 26.6991C11.1267 27.2421 11.6063 27.7172 12.1544 27.7172C12.7025 27.7172 13.1821 27.2421 13.1821 26.6991C13.1821 26.1561 12.7025 25.681 12.1544 25.681Z" fill="#D7D7D7"/>
<path d="M48.876 25.681C48.3279 25.681 47.8483 26.1561 47.8483 26.6991C47.8483 27.2421 48.3279 27.7172 48.876 27.7172C49.4241 27.7172 49.9037 27.2421 49.9037 26.6991C49.9037 26.1561 49.4926 25.681 48.876 25.681Z" fill="#D7D7D7"/>
<path d="M30.7892 17.9434H27.7063C27.1582 17.9434 26.6786 18.4186 26.6786 18.9615C26.6786 19.5045 27.1582 19.9796 27.7063 19.9796H29.5561V21.405C29.5561 21.948 30.0356 22.4231 30.5837 22.4231C31.1318 22.4231 31.6114 21.948 31.6114 21.405V19.8439C32.228 19.7081 32.8446 19.3688 33.3241 18.8937C34.0092 18.2149 34.3518 17.3326 34.3518 16.3824C34.3518 14.414 32.776 12.8529 30.7892 12.8529H30.2412C29.419 12.8529 28.7339 12.1742 28.7339 11.3597C28.7339 10.5452 29.419 9.86652 30.2412 9.86652H33.1871C33.7352 9.86652 34.2148 9.3914 34.2148 8.84842C34.2148 8.30543 33.7352 7.83032 33.1871 7.83032H31.5429V6.40498C31.5429 5.86199 31.0633 5.38688 30.5152 5.38688C29.9671 5.38688 29.4875 5.86199 29.4875 6.40498V7.89819C27.8433 8.23756 26.6101 9.6629 26.6101 11.3597C26.6101 13.3281 28.2544 14.8891 30.1727 14.8891H30.7207C31.5429 14.8891 32.228 15.5679 32.228 16.3824C32.228 16.7896 32.0909 17.1968 31.7484 17.4683C31.5429 17.7398 31.2003 17.8756 30.7892 17.9434Z" fill="#D7D7D7"/>
</svg>
