<svg width="55" height="57" viewBox="0 0 55 57" fill="none" xmlns="http://www.w3.org/2000/svg">
<path d="M54.9999 27.2554C54.9969 12.1996 42.6821 -0.00304357 27.494 5.69433e-07C12.3064 0.00304471 -0.00307022 12.2113 5.74418e-07 27.2672C0.00263267 39.1267 7.73881 49.6237 19.1354 53.231C19.2442 53.2649 19.3573 53.2823 19.471 53.2819C19.6877 53.2814 19.9 53.224 20.0864 53.1149C20.329 52.9727 20.5102 52.7466 20.5953 52.48L27.5401 30.6596C29.4387 30.6501 30.9697 29.1163 30.9596 27.2345C30.95 25.3524 29.4032 23.8347 27.5046 23.8443C26.9939 23.8464 26.4899 23.963 26.031 24.1852L16.8564 15.0889C16.4011 14.6531 15.6759 14.6658 15.2364 15.1167C14.8073 15.5573 14.8073 16.2548 15.2364 16.6953L24.4062 25.796C23.7025 27.2198 24.1048 28.9384 25.3699 29.909L18.7528 50.7013C5.67569 45.926 -1.02038 31.5459 3.79681 18.5823C8.61399 5.6186 23.1199 -1.01935 36.1971 3.75602C49.2742 8.5314 55.9703 22.9119 51.1531 35.8751C48.7996 42.2086 43.964 47.3306 37.7448 50.0777L37.0297 46.7392C36.899 46.1256 36.2905 45.7333 35.6715 45.8633C35.4763 45.9046 35.2952 45.9955 35.146 46.1273L28.2517 52.229C27.7788 52.6461 27.7366 53.3641 28.1578 53.8329C28.2946 53.9851 28.4701 54.0981 28.6666 54.1603L37.4688 56.9453C38.0711 57.1371 38.7164 56.8087 38.9099 56.2112C38.9713 56.0225 38.9814 55.8216 38.9402 55.6276L38.2374 52.3517C48.4153 48.0982 55.0236 38.2047 54.9999 27.2554ZM27.5002 26.1195C28.1328 26.1195 28.646 26.6283 28.646 27.2554C28.646 27.8829 28.1328 28.3913 27.5002 28.3913C26.8672 28.3913 26.3543 27.8829 26.3543 27.2554C26.3543 26.6283 26.8672 26.1195 27.5002 26.1195ZM31.2742 52.5961L35.1986 49.1258L36.2818 54.1851L31.2742 52.5961Z" fill="#D7D7D7"/>
<path d="M26.3543 5.67339V7.94519C26.3543 8.57271 26.8672 9.08108 27.5002 9.08108C28.1328 9.08108 28.646 8.57271 28.646 7.94519V5.67339C28.646 5.0463 28.1328 4.5375 27.5002 4.5375C26.8672 4.5375 26.3543 5.0463 26.3543 5.67339Z" fill="#D7D7D7"/>
<path d="M5.72921 26.1195C5.09619 26.1195 4.58336 26.6283 4.58336 27.2554C4.58336 27.8829 5.09619 28.3913 5.72921 28.3913H8.02089C8.65391 28.3913 9.16673 27.8829 9.16673 27.2554C9.16673 26.6283 8.65391 26.1195 8.02089 26.1195H5.72921Z" fill="#D7D7D7"/>
<path d="M49.2707 28.3913C49.9038 28.3913 50.4166 27.8829 50.4166 27.2554C50.4166 26.6283 49.9038 26.1195 49.2707 26.1195H46.979C46.3465 26.1195 45.8332 26.6283 45.8332 27.2554C45.8332 27.8829 46.3465 28.3913 46.979 28.3913H49.2707Z" fill="#D7D7D7"/>
</svg>
