<svg width="26" height="26" viewBox="0 0 26 26" fill="none" xmlns="http://www.w3.org/2000/svg">
<g clip-path="url(#clip0_45_726)">
<path d="M13 0C9.55297 0 6.24406 1.37048 3.80859 3.80758C1.37063 6.24565 0.00069763 9.55212 0 13C0 16.4464 1.37109 19.7553 3.80859 22.1924C6.24406 24.6295 9.55297 26 13 26C16.447 26 19.7559 24.6295 22.1914 22.1924C24.6289 19.7553 26 16.4464 26 13C26 9.55358 24.6289 6.24467 22.1914 3.80758C19.7559 1.37048 16.447 0 13 0Z" fill="#333333"/>
<path d="M5.88442 12.8628C9.67473 11.2118 12.2016 10.1233 13.465 9.59736C17.0766 8.09565 17.8261 7.83484 18.3157 7.826C18.4233 7.82428 18.663 7.85089 18.8194 7.97733C18.9494 8.08397 18.986 8.22819 19.0043 8.32945C19.0205 8.43061 19.0429 8.66115 19.0246 8.84112C18.8296 10.8967 17.9825 15.8851 17.5519 18.1875C17.3711 19.1617 17.0116 19.4883 16.6643 19.5202C15.9086 19.5897 15.3358 19.0213 14.6046 18.5422C13.461 17.792 12.815 17.3252 11.7039 16.5934C10.4202 15.7476 11.253 15.2826 11.9843 14.5229C12.1752 14.3241 15.5024 11.2985 15.5654 11.0241C15.5735 10.9898 15.5816 10.8618 15.5044 10.7944C15.4293 10.7267 15.3175 10.7499 15.2363 10.7682C15.1205 10.7942 13.2944 12.0024 9.75192 14.3925C9.23395 14.7488 8.76473 14.9225 8.34223 14.9133C7.8791 14.9034 6.98535 14.6509 6.32113 14.4352C5.50863 14.1705 4.86067 14.0306 4.91754 13.581C4.94598 13.347 5.26895 13.1076 5.88442 12.8628Z" fill="white"/>
</g>
<defs>
<clipPath id="clip0_45_726">
<rect width="26" height="26" fill="white"/>
</clipPath>
</defs>
</svg>
