<svg width="67" height="67" viewBox="0 0 67 67" fill="none" xmlns="http://www.w3.org/2000/svg">
<circle opacity="0.3" cx="33.3935" cy="33.6897" r="32.949" fill="white"/>
<circle cx="33.3933" cy="33.6897" r="20.5334" fill="#88BF2D"/>
<path d="M29.7957 42.7627C29.5208 42.7621 29.2508 42.687 29.0122 42.5445C28.4749 42.2269 28.1409 41.6102 28.1409 40.9408V27.3938C28.1409 26.7225 28.4749 26.1078 29.0122 25.7901C29.2565 25.6437 29.534 25.5683 29.8157 25.572C30.0974 25.5757 30.3731 25.6583 30.6137 25.8112L41.7109 32.7416C41.9422 32.8929 42.1329 33.103 42.265 33.3522C42.3972 33.6014 42.4665 33.8816 42.4665 34.1664C42.4665 34.4512 42.3972 34.7313 42.265 34.9805C42.1329 35.2298 41.9422 35.4399 41.7109 35.5912L30.6119 42.5235C30.3656 42.6788 30.0835 42.7615 29.7957 42.7627Z" fill="white"/>
</svg>
