<svg width="27" height="26" viewBox="0 0 27 26" fill="none" xmlns="http://www.w3.org/2000/svg">
<path d="M13.3853 0C6.20546 0 0.385254 5.82021 0.385254 13C0.385254 20.1798 6.20546 26 13.3853 26C20.565 26 26.3853 20.1798 26.3853 13C26.3853 5.82021 20.565 0 13.3853 0ZM18.3848 14.667C18.3848 14.667 19.5345 15.8018 19.8175 16.3285C19.8257 16.3394 19.8297 16.3502 19.8324 16.3556C19.9475 16.5493 19.9746 16.6996 19.9178 16.812C19.823 16.9989 19.498 17.0909 19.3869 17.0991H17.3557C17.2148 17.0991 16.9196 17.0625 16.5621 16.816C16.2872 16.6237 16.0164 16.3082 15.7523 16.0008C15.3583 15.5431 15.017 15.1477 14.6731 15.1477C14.6294 15.1476 14.586 15.1545 14.5444 15.168C14.2844 15.252 13.9513 15.623 13.9513 16.6116C13.9513 16.9203 13.7075 17.0977 13.5356 17.0977H12.6053C12.2884 17.0977 10.6376 16.9867 9.17515 15.4443C7.38494 13.5552 5.77348 9.76625 5.75994 9.73104C5.65838 9.48594 5.86827 9.35458 6.09713 9.35458H8.14869C8.42223 9.35458 8.51161 9.52114 8.5739 9.66875C8.64702 9.84073 8.91515 10.5246 9.35525 11.2937C10.0689 12.5477 10.5063 13.0569 10.857 13.0569C10.9228 13.0561 10.9874 13.0394 11.0453 13.0081C11.503 12.7535 11.4176 11.1218 11.3973 10.7832C11.3973 10.7196 11.396 10.0533 11.1617 9.73375C10.9938 9.50219 10.7081 9.41417 10.5347 9.38167C10.6049 9.28486 10.6973 9.20636 10.8042 9.15281C11.1184 8.99573 11.6844 8.97271 12.2464 8.97271H12.5592C13.1686 8.98083 13.3257 9.0201 13.5464 9.07562C13.9933 9.1826 14.0028 9.47104 13.9635 10.4582C13.9513 10.7385 13.9391 11.0554 13.9391 11.4292C13.9391 11.5104 13.935 11.5971 13.935 11.6892C13.9215 12.1916 13.9053 12.7617 14.26 12.9959C14.3063 13.025 14.3598 13.0404 14.4144 13.0406C14.5376 13.0406 14.9087 13.0406 15.9135 11.3168C16.2234 10.7619 16.4926 10.1853 16.7192 9.59156C16.7395 9.55635 16.7991 9.44802 16.8695 9.40604C16.9215 9.37955 16.9791 9.36607 17.0374 9.36677H19.4492C19.7119 9.36677 19.892 9.40604 19.9259 9.5076C19.9855 9.66875 19.915 10.1603 18.8141 11.6512L18.3225 12.2999C17.3245 13.608 17.3245 13.6744 18.3848 14.667Z" fill="#333333"/>
</svg>
