<svg width="25" height="26" viewBox="0 0 25 26" fill="none" xmlns="http://www.w3.org/2000/svg">
<path d="M0.101632 12.8903C0.10104 15.0196 0.659919 17.0988 1.72262 18.9314L0 25.1928L6.43658 23.5126C8.21686 24.4774 10.2115 24.983 12.2385 24.9831H12.2438C18.9353 24.9831 24.3823 19.5625 24.3851 12.8998C24.3864 9.67131 23.1246 6.63541 20.8321 4.35137C18.5399 2.06752 15.4914 0.809091 12.2433 0.807617C5.5511 0.807617 0.104494 6.22796 0.101731 12.8903" fill="#333333"/>
<path d="M9.65649 7.26824C9.43857 6.74599 9.20922 6.73545 9.00198 6.72629C8.83228 6.71841 8.63828 6.719 8.44447 6.719C8.25047 6.719 7.93527 6.79769 7.66884 7.11136C7.40214 7.42532 6.65063 8.18402 6.65063 9.72713C6.65063 11.2702 7.69305 12.7617 7.83836 12.9711C7.98386 13.1802 9.85076 16.4482 12.8075 17.7054C15.2648 18.7502 15.7648 18.5424 16.2982 18.49C16.8316 18.4378 18.0193 17.7315 18.2616 16.9991C18.5041 16.2668 18.5041 15.6391 18.4314 15.5079C18.3587 15.3772 18.1647 15.2987 17.8738 15.142C17.5829 14.9852 16.1527 14.2263 15.886 14.1216C15.6193 14.017 15.4254 13.9648 15.2314 14.2789C15.0374 14.5924 14.4804 15.2987 14.3106 15.5079C14.141 15.7176 13.9712 15.7437 13.6804 15.5868C13.3893 15.4294 12.4525 15.0986 11.341 14.0302C10.4762 13.1988 9.89241 12.1721 9.72271 11.8581C9.55301 11.5445 9.70454 11.3745 9.8504 11.2182C9.9811 11.0777 10.1414 10.852 10.287 10.6689C10.432 10.4857 10.4804 10.3551 10.5774 10.1459C10.6745 9.9365 10.6259 9.75333 10.5533 9.59645C10.4804 9.43957 9.91515 7.88838 9.65649 7.26824Z" fill="white"/>
</svg>
