<svg width="29" height="20" viewBox="0 0 29 20" fill="none" xmlns="http://www.w3.org/2000/svg">
<path d="M27.6765 3.35455C27.5587 2.93563 27.3331 2.54816 27.0181 2.22413C26.7032 1.9001 26.3081 1.64878 25.8653 1.49091C21.5803 -0.0136321 14.7603 4.32264e-06 14.3853 4.32264e-06C14.0103 4.32264e-06 7.19025 -0.0136321 2.90525 1.49091C2.46246 1.64878 2.0673 1.9001 1.75237 2.22413C1.43745 2.54816 1.21179 2.93563 1.094 3.35455C0.770254 4.48864 0.385254 6.56137 0.385254 10C0.385254 13.4386 0.770254 15.5114 1.094 16.6455C1.21161 17.0646 1.43719 17.4523 1.75213 17.7765C2.06706 18.1008 2.46231 18.3522 2.90525 18.5102C7.01025 19.95 13.4353 20 14.3028 20H14.4678C15.3353 20 21.764 19.95 25.8653 18.5102C26.3082 18.3522 26.7034 18.1008 27.0184 17.7765C27.3333 17.4523 27.5589 17.0646 27.6765 16.6455C28.0003 15.5091 28.3853 13.4386 28.3853 10C28.3853 6.56137 28.0003 4.48864 27.6765 3.35455ZM18.459 10.7409L13.459 13.9227C13.3094 14.018 13.134 14.0742 12.9518 14.0852C12.7696 14.0963 12.5875 14.0618 12.4254 13.9854C12.2632 13.9091 12.1271 13.7938 12.0319 13.6522C11.9367 13.5105 11.886 13.3478 11.8853 13.1818V6.81818C11.8853 6.65188 11.9355 6.48878 12.0305 6.34662C12.1254 6.20447 12.2614 6.08872 12.4237 6.01196C12.586 5.93521 12.7683 5.90039 12.9509 5.91131C13.1334 5.92222 13.3092 5.97845 13.459 6.07387L18.459 9.25568C18.5905 9.33953 18.6979 9.45095 18.772 9.58051C18.8462 9.71007 18.8849 9.85396 18.8849 10C18.8849 10.146 18.8462 10.2899 18.772 10.4195C18.6979 10.5491 18.5905 10.6605 18.459 10.7443V10.7409Z" fill="#333333"/>
</svg>
