<svg width="44" height="55" viewBox="0 0 44 55" fill="none" xmlns="http://www.w3.org/2000/svg">
<path d="M28.7789 0.16668C28.6126 0.0833399 28.363 0 28.1967 0H1.74672C0.748532 0 0 0.749948 0 1.75003V54.1667C0 54.6667 0.33273 55 0.831714 55H43.1683C43.6674 55 44 54.6666 44 54.1667V15.0833C44 14.8333 43.9168 14.5833 43.7505 14.4166L28.7789 0.16668ZM29.0284 2.74999L41.0889 14.1667H29.0284V2.74999ZM42.3366 53.3333H1.66354L1.74672 1.66669H27.3649V15.0834C27.3649 15.5834 27.6977 15.9167 28.1967 15.9167H42.3366V53.3333Z" fill="#D7D7D7"/>
<path d="M12.6427 15C14.8885 15 16.7184 13.1666 16.7184 10.9166C16.7184 8.66668 14.8885 6.83332 12.6427 6.83332C10.397 6.83332 8.56713 8.66668 8.56713 10.9166C8.56713 13.1666 10.397 15 12.6427 15ZM12.6427 8.58334C13.9736 8.58334 15.0548 9.66665 15.0548 11C15.0548 12.3333 13.9736 13.4166 12.6427 13.4166C11.3119 13.4166 10.2307 12.3333 10.2307 11C10.3139 9.66665 11.3119 8.58334 12.6427 8.58334Z" fill="#D7D7D7"/>
<path d="M9.48203 19.0834C8.98294 19.0834 8.65032 19.4168 8.65032 19.9167V30C8.65032 30.4167 8.89986 30.75 9.23259 30.8333C9.31578 30.8333 9.39896 30.8333 9.48214 30.8333C9.81487 30.8333 10.0644 30.6666 10.2307 30.4166L12.6427 26.1666L15.0548 30.4166C15.2212 30.75 15.6371 30.9167 15.9697 30.8333C16.3023 30.75 16.552 30.4166 16.552 30V19.9167C16.552 19.4166 16.2193 19.0834 15.7203 19.0834C15.2212 19.0834 14.8886 19.4168 14.8886 19.9167V26.9167L13.3082 24.0833C13.1418 23.8333 12.8923 23.6666 12.5597 23.6666C12.2269 23.6666 11.9774 23.8333 11.8111 24.0833L10.2308 26.9167V20C10.3139 19.4166 9.98113 19.0834 9.48203 19.0834Z" fill="#D7D7D7"/>
<path d="M6.48768 16.3333C6.48768 16.8333 6.82041 17.1666 7.3194 17.1666H8.56702L9.06612 18.3332C9.23248 18.7499 9.73158 18.9999 10.1474 18.7499L11.3118 18.2499L12.1435 19.0832C12.3099 19.2498 12.5595 19.3332 12.7258 19.3332C12.9754 19.3332 13.1417 19.2498 13.3081 19.0832L14.223 18.2499L15.3874 18.7499C15.8033 18.9166 16.3023 18.7499 16.4687 18.3332L16.8846 17.2499H18.0491C18.5481 17.2499 18.8808 16.9166 18.8808 16.4166V15.1666L20.0452 14.6666C20.2116 14.5833 20.3779 14.4166 20.4611 14.2499C20.5443 14.0832 20.5443 13.8332 20.4611 13.5833L19.962 12.4166L20.7937 11.5834C20.9601 11.4167 21.0433 11.25 21.0433 11C21.0433 10.75 20.9601 10.5833 20.7937 10.4166L19.8788 9.58331L20.3779 8.41666C20.4611 8.24998 20.4611 7.99996 20.3779 7.74994C20.2948 7.58326 20.1284 7.41658 19.962 7.33325L18.8808 6.91654V5.66667C18.8808 5.16663 18.548 4.83338 18.0491 4.83338H16.8014L16.3023 3.66673C16.136 3.25003 15.6369 3.00012 15.2211 3.25003L14.1399 3.66662L13.3082 2.83333C12.9755 2.49997 12.4765 2.49997 12.1438 2.83333L11.312 3.66662L10.1476 3.16658C9.73169 2.9999 9.2327 3.16658 9.06634 3.58328L8.65043 4.66659H7.31951C6.82041 4.66659 6.48779 4.99995 6.48779 5.49988V6.74987L5.32335 7.33325C5.15698 7.41658 4.99062 7.58326 4.90744 7.74994C4.82425 7.91662 4.82425 8.16664 4.90744 8.41666L5.40653 9.58331L4.57482 10.4166C4.40845 10.5833 4.32527 10.75 4.32527 11C4.32527 11.25 4.40845 11.4167 4.57482 11.5834L5.48971 12.4166L4.99062 13.5833C4.90744 13.75 4.90744 14 4.99062 14.25C5.0738 14.4167 5.24017 14.5834 5.40653 14.6667L6.48779 15.0834L6.48768 16.3333ZM6.23824 11L6.9037 10.3333C7.15325 10.0832 7.23643 9.74988 7.07007 9.41663L6.73734 8.58334L7.56905 8.24998C7.90178 8.0833 8.06815 7.83328 8.06815 7.50004V6.50007H8.98305C9.31578 6.50007 9.64851 6.33339 9.73158 6.00003L10.0643 5.16674L10.9792 5.5001C11.3119 5.66678 11.6446 5.58344 11.8941 5.33342L12.5595 4.6667L13.308 5.25008C13.5575 5.5001 13.8903 5.58344 14.2229 5.41676L15.0546 5.0834L15.3873 5.91669C15.5537 6.25005 15.8032 6.41673 16.1359 6.41673H17.0508V7.33336C17.0508 7.66672 17.2171 7.99996 17.5498 8.0833L18.3816 8.41666L18.0488 9.33329C17.8825 9.66665 17.9657 10 18.2152 10.2499L18.8807 10.9166L18.3816 11.6666C18.132 11.9166 18.0488 12.25 18.2152 12.5832L18.5479 13.4165L17.7162 13.7499C17.3835 13.9165 17.2171 14.1666 17.2171 14.4998V15.4164H16.3022C15.9695 15.4164 15.6368 15.5831 15.5537 15.9165L15.221 16.7498L14.3061 16.4164C13.9733 16.2497 13.6407 16.3331 13.3912 16.5831L12.7258 17.2497L12.0604 16.5831C11.894 16.4164 11.7276 16.3331 11.4781 16.3331C11.3949 16.3331 11.2285 16.3331 11.1453 16.4164L10.3136 16.7498L9.9809 15.9165C9.81454 15.5831 9.56499 15.4164 9.23237 15.4164H8.31748V14.4998C8.31748 14.1664 8.15111 13.8331 7.81838 13.7499L6.98667 13.4165L7.3194 12.4999C7.48576 12.1665 7.40258 11.8333 7.15303 11.5832L6.23824 11Z" fill="#D7D7D7"/>
<path d="M20.3782 23.9167C20.3782 24.4167 20.7109 24.7499 21.2099 24.7499H37.3461C37.8452 24.7499 38.1778 24.4166 38.1778 23.9167C38.1778 23.4167 37.8451 23.0834 37.3461 23.0834H21.2099C20.7108 23.0834 20.3782 23.4166 20.3782 23.9167Z" fill="#D7D7D7"/>
<path d="M37.3461 30.8333C37.8452 30.8333 38.1778 30.5 38.1778 30C38.1778 29.5001 37.7619 29.1667 37.2629 29.1667H21.2099C20.7108 29.1667 20.3782 29.5001 20.3782 30C20.3782 30.5 20.7109 30.8333 21.2099 30.8333H37.3461Z" fill="#D7D7D7"/>
<path d="M37.4292 35.3333H6.57086C6.07177 35.3333 5.73915 35.6667 5.73915 36.1666C5.73915 36.6666 6.07188 36.9999 6.57086 36.9999H37.4291C37.9282 36.9999 38.2609 36.6666 38.2609 36.1666C38.2609 35.6667 37.9282 35.3333 37.4292 35.3333Z" fill="#D7D7D7"/>
<path d="M37.4292 41.4167H6.57086C6.07177 41.4167 5.73915 41.7501 5.73915 42.25C5.73915 42.7499 6.07188 43.0833 6.57086 43.0833H37.4291C37.9282 43.0833 38.2609 42.7499 38.2609 42.25C38.2609 41.7501 37.9282 41.4167 37.4292 41.4167Z" fill="#D7D7D7"/>
<path d="M37.4292 47.5833H6.57086C6.07177 47.5833 5.73915 47.9167 5.73915 48.4166C5.73915 48.9165 6.07188 49.2499 6.57086 49.2499H37.4291C37.9282 49.2499 38.2609 48.9165 38.2609 48.4166C38.2609 47.9167 37.9282 47.5833 37.4292 47.5833Z" fill="#D7D7D7"/>
</svg>
